<?xml version="1.0" encoding="UTF-8" standalone="no"?>
<!DOCTYPE svg PUBLIC "-//W3C//DTD SVG 1.1//EN"
 "http://www.w3.org/Graphics/SVG/1.1/DTD/svg11.dtd">
<!-- Generated by graphviz version 2.38.0 (20140413.2041)
 -->
<!-- Title: models_diagram Pages: 1 -->
<svg width="988pt" height="769pt"
 viewBox="0.00 0.00 988.00 769.00" xmlns="http://www.w3.org/2000/svg" xmlns:xlink="http://www.w3.org/1999/xlink">
<g id="graph0" class="graph" transform="scale(1 1) rotate(0) translate(4 765)">
<title>models_diagram</title>
<polygon fill="none" stroke="none" points="-4,4 -4,-765 984,-765 984,4 -4,4"/>
<!-- _diagram_info -->
<g id="node1" class="node"><title>_diagram_info</title>
<text text-anchor="start" x="8" y="-642.1" font-family="Times,serif" font-size="13.00">Models diagram</text>
<text text-anchor="start" x="8" y="-628.1" font-family="Times,serif" font-size="13.00">Date: Sep 26 2017 &#45; 15:47</text>
<text text-anchor="start" x="8" y="-614.1" font-family="Times,serif" font-size="13.00">Migration version: 20170926184554</text>
<text text-anchor="start" x="8" y="-600.1" font-family="Times,serif" font-size="13.00">Generated by RailRoady 1.5.3</text>
<text text-anchor="start" x="8" y="-586.1" font-family="Times,serif" font-size="13.00">http://railroady.prestonlee.com</text>
</g>
<!-- Order -->
<g id="node2" class="node"><title>Order</title>
<path fill="none" stroke="black" d="M279,-324C279,-324 499,-324 499,-324 505,-324 511,-330 511,-336 511,-336 511,-418 511,-418 511,-424 505,-430 499,-430 499,-430 279,-430 279,-430 273,-430 267,-424 267,-418 267,-418 267,-336 267,-336 267,-330 273,-324 279,-324"/>
<text text-anchor="middle" x="389" y="-414.8" font-family="Times,serif" font-size="14.00">Order</text>
<polyline fill="none" stroke="black" points="267,-407 511,-407 "/>
<text text-anchor="start" x="275" y="-391.8" font-family="Times,serif" font-size="14.00">id :integer</text>
<text text-anchor="start" x="275" y="-376.8" font-family="Times,serif" font-size="14.00">user_id :integer</text>
<text text-anchor="start" x="275" y="-361.8" font-family="Times,serif" font-size="14.00">amount :integer</text>
<text text-anchor="start" x="275" y="-346.8" font-family="Times,serif" font-size="14.00">created_at :timestamp without time zone</text>
<text text-anchor="start" x="275" y="-331.8" font-family="Times,serif" font-size="14.00">updated_at :timestamp without time zone</text>
</g>
<!-- Arcade -->
<g id="node4" class="node"><title>Arcade</title>
<path fill="none" stroke="black" d="M307,-143.5C307,-143.5 527,-143.5 527,-143.5 533,-143.5 539,-149.5 539,-155.5 539,-155.5 539,-267.5 539,-267.5 539,-273.5 533,-279.5 527,-279.5 527,-279.5 307,-279.5 307,-279.5 301,-279.5 295,-273.5 295,-267.5 295,-267.5 295,-155.5 295,-155.5 295,-149.5 301,-143.5 307,-143.5"/>
<text text-anchor="middle" x="417" y="-264.3" font-family="Times,serif" font-size="14.00">Arcade</text>
<polyline fill="none" stroke="black" points="295,-256.5 539,-256.5 "/>
<text text-anchor="start" x="303" y="-241.3" font-family="Times,serif" font-size="14.00">id :integer</text>
<text text-anchor="start" x="303" y="-226.3" font-family="Times,serif" font-size="14.00">name :character varying</text>
<text text-anchor="start" x="303" y="-211.3" font-family="Times,serif" font-size="14.00">price :integer</text>
<text text-anchor="start" x="303" y="-196.3" font-family="Times,serif" font-size="14.00">order_id :integer</text>
<text text-anchor="start" x="303" y="-181.3" font-family="Times,serif" font-size="14.00">created_at :timestamp without time zone</text>
<text text-anchor="start" x="303" y="-166.3" font-family="Times,serif" font-size="14.00">updated_at :timestamp without time zone</text>
<text text-anchor="start" x="303" y="-151.3" font-family="Times,serif" font-size="14.00">design_id :integer</text>
</g>
<!-- Order&#45;&gt;Arcade -->
<g id="edge1" class="edge"><title>Order&#45;&gt;Arcade</title>
<path fill="none" stroke="#07693a" d="M399.309,-315.804C400.77,-307.273 402.288,-298.405 403.795,-289.609"/>
<ellipse fill="none" stroke="#07693a" cx="398.612" cy="-319.875" rx="4.00001" ry="4.00001"/>
<polygon fill="#07693a" stroke="#07693a" points="403.799,-289.586 409.922,-280.489 404.643,-284.658 405.487,-279.73 405.487,-279.73 405.487,-279.73 404.643,-284.658 401.051,-278.97 403.799,-289.586 403.799,-289.586"/>
</g>
<!-- Component -->
<g id="node3" class="node"><title>Component</title>
<path fill="none" stroke="black" d="M541,-316.5C541,-316.5 761,-316.5 761,-316.5 767,-316.5 773,-322.5 773,-328.5 773,-328.5 773,-425.5 773,-425.5 773,-431.5 767,-437.5 761,-437.5 761,-437.5 541,-437.5 541,-437.5 535,-437.5 529,-431.5 529,-425.5 529,-425.5 529,-328.5 529,-328.5 529,-322.5 535,-316.5 541,-316.5"/>
<text text-anchor="middle" x="651" y="-422.3" font-family="Times,serif" font-size="14.00">Component</text>
<polyline fill="none" stroke="black" points="529,-414.5 773,-414.5 "/>
<text text-anchor="start" x="537" y="-399.3" font-family="Times,serif" font-size="14.00">id :integer</text>
<text text-anchor="start" x="537" y="-384.3" font-family="Times,serif" font-size="14.00">name :character varying</text>
<text text-anchor="start" x="537" y="-369.3" font-family="Times,serif" font-size="14.00">price :integer</text>
<text text-anchor="start" x="537" y="-354.3" font-family="Times,serif" font-size="14.00">stock :integer</text>
<text text-anchor="start" x="537" y="-339.3" font-family="Times,serif" font-size="14.00">created_at :timestamp without time zone</text>
<text text-anchor="start" x="537" y="-324.3" font-family="Times,serif" font-size="14.00">updated_at :timestamp without time zone</text>
</g>
<!-- Component&#45;&gt;Arcade -->
<g id="edge3" class="edge"><title>Component&#45;&gt;Arcade</title>
<path fill="none" stroke="#5cf3ac" d="M557.038,-310.347C545.235,-302.1 533.106,-293.625 521.158,-285.277"/>
<polygon fill="#5cf3ac" stroke="#5cf3ac" points="557.33,-310.551 562.95,-319.967 561.429,-313.415 565.527,-316.279 565.527,-316.279 565.527,-316.279 561.429,-313.415 568.105,-312.59 557.33,-310.551 557.33,-310.551"/>
<polygon fill="#5cf3ac" stroke="#5cf3ac" points="521.118,-285.249 515.499,-275.833 517.02,-282.386 512.921,-279.522 512.921,-279.522 512.921,-279.522 517.02,-282.386 510.344,-283.211 521.118,-285.249 521.118,-285.249"/>
</g>
<!-- ComponentArcade -->
<g id="node7" class="node"><title>ComponentArcade</title>
<path fill="none" stroke="black" d="M410,-0.5C410,-0.5 630,-0.5 630,-0.5 636,-0.5 642,-6.5 642,-12.5 642,-12.5 642,-94.5 642,-94.5 642,-100.5 636,-106.5 630,-106.5 630,-106.5 410,-106.5 410,-106.5 404,-106.5 398,-100.5 398,-94.5 398,-94.5 398,-12.5 398,-12.5 398,-6.5 404,-0.5 410,-0.5"/>
<text text-anchor="middle" x="520" y="-91.3" font-family="Times,serif" font-size="14.00">ComponentArcade</text>
<polyline fill="none" stroke="black" points="398,-83.5 642,-83.5 "/>
<text text-anchor="start" x="406" y="-68.3" font-family="Times,serif" font-size="14.00">id :integer</text>
<text text-anchor="start" x="406" y="-53.3" font-family="Times,serif" font-size="14.00">arcade_id :integer</text>
<text text-anchor="start" x="406" y="-38.3" font-family="Times,serif" font-size="14.00">component_id :integer</text>
<text text-anchor="start" x="406" y="-23.3" font-family="Times,serif" font-size="14.00">created_at :timestamp without time zone</text>
<text text-anchor="start" x="406" y="-8.3" font-family="Times,serif" font-size="14.00">updated_at :timestamp without time zone</text>
</g>
<!-- Component&#45;&gt;ComponentArcade -->
<g id="edge2" class="edge"><title>Component&#45;&gt;ComponentArcade</title>
<path fill="none" stroke="#231b2b" d="M623.585,-308.719C600.427,-251.884 567.536,-171.163 545.069,-116.024"/>
<ellipse fill="none" stroke="#231b2b" cx="625.158" cy="-312.577" rx="4.00001" ry="4.00001"/>
<polygon fill="#231b2b" stroke="#231b2b" points="545.052,-115.982 545.446,-105.023 543.165,-111.351 541.278,-106.721 541.278,-106.721 541.278,-106.721 543.165,-111.351 537.111,-108.419 545.052,-115.982 545.052,-115.982"/>
</g>
<!-- Arcade&#45;&gt;ComponentArcade -->
<g id="edge4" class="edge"><title>Arcade&#45;&gt;ComponentArcade</title>
<path fill="none" stroke="#f33462" d="M465.838,-136.531C470.484,-129.496 475.158,-122.416 479.71,-115.522"/>
<ellipse fill="none" stroke="#f33462" cx="463.483" cy="-140.099" rx="4.00002" ry="4.00002"/>
<polygon fill="#f33462" stroke="#f33462" points="479.888,-115.252 489.153,-109.386 482.643,-111.079 485.398,-106.907 485.398,-106.907 485.398,-106.907 482.643,-111.079 481.643,-104.427 479.888,-115.252 479.888,-115.252"/>
</g>
<!-- ApplicationRecord -->
<g id="node5" class="node"><title>ApplicationRecord</title>
<ellipse fill="none" stroke="black" cx="641" cy="-617.5" rx="77.1866" ry="18"/>
<text text-anchor="middle" x="641" y="-613.8" font-family="Times,serif" font-size="14.00">ApplicationRecord</text>
</g>
<!-- Design -->
<g id="node6" class="node"><title>Design</title>
<path fill="none" stroke="black" d="M17,-331.5C17,-331.5 237,-331.5 237,-331.5 243,-331.5 249,-337.5 249,-343.5 249,-343.5 249,-410.5 249,-410.5 249,-416.5 243,-422.5 237,-422.5 237,-422.5 17,-422.5 17,-422.5 11,-422.5 5,-416.5 5,-410.5 5,-410.5 5,-343.5 5,-343.5 5,-337.5 11,-331.5 17,-331.5"/>
<text text-anchor="middle" x="127" y="-407.3" font-family="Times,serif" font-size="14.00">Design</text>
<polyline fill="none" stroke="black" points="5,-399.5 249,-399.5 "/>
<text text-anchor="start" x="13" y="-384.3" font-family="Times,serif" font-size="14.00">id :integer</text>
<text text-anchor="start" x="13" y="-369.3" font-family="Times,serif" font-size="14.00">name :character varying</text>
<text text-anchor="start" x="13" y="-354.3" font-family="Times,serif" font-size="14.00">created_at :timestamp without time zone</text>
<text text-anchor="start" x="13" y="-339.3" font-family="Times,serif" font-size="14.00">updated_at :timestamp without time zone</text>
</g>
<!-- Design&#45;&gt;Arcade -->
<g id="edge5" class="edge"><title>Design&#45;&gt;Arcade</title>
<path fill="none" stroke="#7d03a2" d="M213.301,-327.344C237.114,-313.918 263.469,-299.06 289.1,-284.609"/>
<ellipse fill="none" stroke="#7d03a2" cx="209.728" cy="-329.358" rx="4.00002" ry="4.00002"/>
<polygon fill="#7d03a2" stroke="#7d03a2" points="289.42,-284.429 300.341,-283.438 293.775,-281.973 298.131,-279.518 298.131,-279.518 298.131,-279.518 293.775,-281.973 295.921,-275.598 289.42,-284.429 289.42,-284.429"/>
</g>
<!-- User -->
<g id="node8" class="node"><title>User</title>
<path fill="none" stroke="black" d="M244.5,-474.5C244.5,-474.5 533.5,-474.5 533.5,-474.5 539.5,-474.5 545.5,-480.5 545.5,-486.5 545.5,-486.5 545.5,-748.5 545.5,-748.5 545.5,-754.5 539.5,-760.5 533.5,-760.5 533.5,-760.5 244.5,-760.5 244.5,-760.5 238.5,-760.5 232.5,-754.5 232.5,-748.5 232.5,-748.5 232.5,-486.5 232.5,-486.5 232.5,-480.5 238.5,-474.5 244.5,-474.5"/>
<text text-anchor="middle" x="389" y="-745.3" font-family="Times,serif" font-size="14.00">User</text>
<polyline fill="none" stroke="black" points="232.5,-737.5 545.5,-737.5 "/>
<text text-anchor="start" x="240.5" y="-722.3" font-family="Times,serif" font-size="14.00">id :integer</text>
<text text-anchor="start" x="240.5" y="-707.3" font-family="Times,serif" font-size="14.00">email :character varying</text>
<text text-anchor="start" x="240.5" y="-692.3" font-family="Times,serif" font-size="14.00">encrypted_password :character varying</text>
<text text-anchor="start" x="240.5" y="-677.3" font-family="Times,serif" font-size="14.00">reset_password_token :character varying</text>
<text text-anchor="start" x="240.5" y="-662.3" font-family="Times,serif" font-size="14.00">reset_password_sent_at :timestamp without time zone</text>
<text text-anchor="start" x="240.5" y="-647.3" font-family="Times,serif" font-size="14.00">remember_created_at :timestamp without time zone</text>
<text text-anchor="start" x="240.5" y="-632.3" font-family="Times,serif" font-size="14.00">sign_in_count :integer</text>
<text text-anchor="start" x="240.5" y="-617.3" font-family="Times,serif" font-size="14.00">current_sign_in_at :timestamp without time zone</text>
<text text-anchor="start" x="240.5" y="-602.3" font-family="Times,serif" font-size="14.00">last_sign_in_at :timestamp without time zone</text>
<text text-anchor="start" x="240.5" y="-587.3" font-family="Times,serif" font-size="14.00">current_sign_in_ip :inet</text>
<text text-anchor="start" x="240.5" y="-572.3" font-family="Times,serif" font-size="14.00">last_sign_in_ip :inet</text>
<text text-anchor="start" x="240.5" y="-557.3" font-family="Times,serif" font-size="14.00">created_at :timestamp without time zone</text>
<text text-anchor="start" x="240.5" y="-542.3" font-family="Times,serif" font-size="14.00">updated_at :timestamp without time zone</text>
<text text-anchor="start" x="240.5" y="-527.3" font-family="Times,serif" font-size="14.00">phone :character varying</text>
<text text-anchor="start" x="240.5" y="-512.3" font-family="Times,serif" font-size="14.00">first_name :character varying</text>
<text text-anchor="start" x="240.5" y="-497.3" font-family="Times,serif" font-size="14.00">last_name :character varying</text>
<text text-anchor="start" x="240.5" y="-482.3" font-family="Times,serif" font-size="14.00">address :character varying</text>
</g>
<!-- User&#45;&gt;Order -->
<g id="edge6" class="edge"><title>User&#45;&gt;Order</title>
<path fill="none" stroke="#983f74" d="M389,-466.298C389,-457.308 389,-448.57 389,-440.308"/>
<ellipse fill="none" stroke="#983f74" cx="389" cy="-470.32" rx="4" ry="4"/>
<polygon fill="#983f74" stroke="#983f74" points="389,-440.115 393.5,-430.115 389,-435.115 389,-430.115 389,-430.115 389,-430.115 389,-435.115 384.5,-430.115 389,-440.115 389,-440.115"/>
</g>
<!-- Brand -->
<g id="node9" class="node"><title>Brand</title>
<path fill="none" stroke="black" d="M748,-564.5C748,-564.5 968,-564.5 968,-564.5 974,-564.5 980,-570.5 980,-576.5 980,-576.5 980,-658.5 980,-658.5 980,-664.5 974,-670.5 968,-670.5 968,-670.5 748,-670.5 748,-670.5 742,-670.5 736,-664.5 736,-658.5 736,-658.5 736,-576.5 736,-576.5 736,-570.5 742,-564.5 748,-564.5"/>
<text text-anchor="middle" x="858" y="-655.3" font-family="Times,serif" font-size="14.00">Brand</text>
<polyline fill="none" stroke="black" points="736,-647.5 980,-647.5 "/>
<text text-anchor="start" x="744" y="-632.3" font-family="Times,serif" font-size="14.00">id :integer</text>
<text text-anchor="start" x="744" y="-617.3" font-family="Times,serif" font-size="14.00">name :character varying</text>
<text text-anchor="start" x="744" y="-602.3" font-family="Times,serif" font-size="14.00">component_id :integer</text>
<text text-anchor="start" x="744" y="-587.3" font-family="Times,serif" font-size="14.00">created_at :timestamp without time zone</text>
<text text-anchor="start" x="744" y="-572.3" font-family="Times,serif" font-size="14.00">updated_at :timestamp without time zone</text>
</g>
</g>
</svg>
